HIERARCHY
ROOT Hips
{
    OFFSET 0.000000 0.000000 0.000000
    CHANNELS 6 Xposition Yposition Zposition Zrotation Xrotation Yrotation
    JOINT Spine
    {
        OFFSET -0.000000 7.246840 0.000000
        CHANNELS 3 Zrotation Xrotation Yrotation
        JOINT Spine1
        {
            OFFSET -0.000000 20.289354 0.000000
            CHANNELS 3 Zrotation Xrotation Yrotation
            JOINT Neck
            {
                OFFSET -0.000000 20.206032 1.836912
                CHANNELS 3 Zrotation Xrotation Yrotation
                JOINT Head
                {
                    OFFSET -0.000000 12.372654 -1.767522
                    CHANNELS 3 Zrotation Xrotation Yrotation
                    End Site
                    {
                        OFFSET -0.000000 22.094025 0.000000
                    }
                }
            }
            JOINT LeftShoulder
            {
                OFFSET 3.465871 17.201674 -0.568930
                CHANNELS 3 Zrotation Xrotation Yrotation
                JOINT LeftArm
                {
                    OFFSET 14.070313 0.000000 0.000000
                    CHANNELS 3 Zrotation Xrotation Yrotation
                    JOINT LeftForeArm
                    {
                        OFFSET 26.549477 0.000000 0.000000
                        CHANNELS 3 Zrotation Xrotation Yrotation
                        JOINT LeftHand
                        {
                            OFFSET 18.880413 0.000000 0.000000
                            CHANNELS 3 Zrotation Xrotation Yrotation
                            End Site
                            {
                                OFFSET 13.256415 0.000000 0.000000
                            }
                        }
                    }
                }
            }
            JOINT RightShoulder
            {
                OFFSET -3.526370 17.201674 -0.568930
                CHANNELS 3 Zrotation Xrotation Yrotation
                JOINT RightArm
                {
                    OFFSET -14.070313 0.000000 0.000000
                    CHANNELS 3 Zrotation Xrotation Yrotation
                    JOINT RightForeArm
                    {
                        OFFSET -26.549477 0.000000 0.000000
                        CHANNELS 3 Zrotation Xrotation Yrotation
                        JOINT RightHand
                        {
                            OFFSET -18.880413 0.000000 0.000000
                            CHANNELS 3 Zrotation Xrotation Yrotation
                            End Site
                            {
                                OFFSET -13.256415 0.000000 0.000000
                            }
                        }
                    }
                }
            }
        }
    }
    JOINT LeftUpLeg
    {
        OFFSET 8.837609 0.000000 0.000000
        CHANNELS 3 Zrotation Xrotation Yrotation
        JOINT LeftLeg
        {
            OFFSET -0.000000 -41.345005 0.000000
            CHANNELS 3 Zrotation Xrotation Yrotation
            JOINT LeftFoot
            {
                OFFSET -0.000000 -35.500874 0.000000
                CHANNELS 3 Zrotation Xrotation Yrotation
                JOINT LeftToeBase
                {
                    OFFSET -0.000000 -5.744446 13.256415
                    CHANNELS 3 Zrotation Xrotation Yrotation
                    End Site
                    {
                        OFFSET -0.000000 0.000000 3.535044
                    }
                }
            }
        }
    }
    JOINT RightUpLeg
    {
        OFFSET -8.837609 0.000000 0.000000
        CHANNELS 3 Zrotation Xrotation Yrotation
        JOINT RightLeg
        {
            OFFSET -0.000000 -41.345005 0.000000
            CHANNELS 3 Zrotation Xrotation Yrotation
            JOINT RightFoot
            {
                OFFSET -0.000000 -35.500874 0.000000
                CHANNELS 3 Zrotation Xrotation Yrotation
                JOINT RightToeBase
                {
                    OFFSET -0.000000 -5.744446 13.256415
                    CHANNELS 3 Zrotation Xrotation Yrotation
                    End Site
                    {
                        OFFSET -0.000000 0.000000 3.535044
                    }
                }
            }
        }
    }
}
MOTION
Frames:    8
Frame Time:    0.010000
8.865933    9.572363    -50.553055    1.212884    -38.174919    -7.701839    -3.178717    20.532700    -0.338264    -5.998637    21.983799    0.252042    5.084208    28.702633    2.210910    -0.114809    -35.378391    2.866099    10.769249    -4.308136    -0.841759    -54.217911    25.594084    -59.075417    -22.225412    -40.465805    -70.036034    -27.628799    -43.488235    -45.322186    0.173345    -4.905440    27.242502    56.114532    8.542057    53.682041    8.980174    -35.234280    61.284500    -10.518635    -40.832859    19.151699    15.880106    -44.689365    18.850170    -3.218597    -2.896911    18.607792    -12.163665    44.821243    8.065328    1.756256    -4.016092    -2.520580    -27.682199    -47.564659    -20.744474    4.248025    -1.888169    -4.350918    23.100401    43.538509    -12.346560    -0.328330    2.938179    0.570956    
8.866859    9.570887    -50.565102    1.203374    -38.234241    -7.681746    -3.191897    20.517128    -0.339102    -6.006786    21.972225    0.250207    5.104177    28.805227    2.190058    -0.027931    -35.234119    2.890639    10.781160    -4.322713    -0.858091    -54.197697    25.564493    -58.989620    -22.338467    -40.475483    -70.058510    -27.630442    -43.557354    -45.346981    0.188511    -4.924707    27.232229    55.985561    8.629078    53.678524    9.044864    -35.342667    61.388905    -10.833786    -40.997066    18.957193    15.855294    -44.684048    18.916813    -3.199964    -2.802687    18.533030    -12.202144    44.761757    8.097912    1.733783    -4.079567    -2.489353    -27.667944    -47.506176    -20.717360    4.237060    -1.879284    -4.344611    23.063288    43.450829    -12.439824    -0.387912    2.968783    0.674355    
8.868243    9.570638    -50.572205    1.170062    -38.293079    -7.679389    -3.465179    20.891764    -0.616279    -4.866187    20.686394    -0.366696    2.450350    30.261669    2.690135    1.845614    -35.585934    3.950748    9.610595    -3.380150    -0.568606    -53.340996    25.228823    -58.898342    -22.959299    -40.540169    -70.485397    -27.462929    -44.078300    -45.457741    -1.460062    -4.050873    28.367085    56.816036    7.985417    53.913040    8.881171    -35.446342    61.129795    -10.803630    -40.995686    18.970331    15.874287    -44.678822    18.917356    -3.203386    -2.691830    18.513866    -12.220615    44.675003    8.132408    1.716606    -4.100935    -2.465036    -27.629868    -47.437721    -20.666079    4.230317    -1.882509    -4.352947    23.077742    43.429585    -12.392706    -0.345376    2.934173    0.600621    
8.879462    9.570530    -50.576721    1.143800    -38.355698    -7.690081    -3.456894    20.865303    -0.613478    -4.863926    20.701485    -0.361282    2.474072    30.398779    2.696058    1.862725    -35.499046    3.969884    9.606665    -3.380723    -0.597992    -53.275249    25.209133    -58.842442    -22.848564    -40.432819    -70.409035    -27.099146    -44.067036    -45.215855    -1.467611    -4.061376    28.366299    56.764839    7.991494    53.921932    8.957527    -35.540920    61.168854    -10.798112    -41.117905    18.941820    15.838238    -44.651928    19.034386    -3.148744    -2.628826    18.417709    -12.217194    44.654675    8.124794    1.724116    -4.150254    -2.476608    -27.598026    -47.373245    -20.605413    4.227352    -1.888340    -4.340828    23.122324    43.389854    -12.420535    -0.341967    2.902425    0.594886    
8.885432    9.568922    -50.585865    1.119405    -38.406933    -7.689141    -3.479970    20.845678    -0.607493    -4.816935    20.715528    -0.366884    2.475188    30.435646    2.716418    1.910374    -35.286533    4.009768    9.601686    -3.363173    -0.575375    -53.282330    25.165497    -58.839741    -23.422325    -40.431282    -70.800659    -26.622158    -44.615845    -45.208542    -1.492322    -4.068724    28.354511    56.763069    7.967156    53.937271    8.974035    -35.555222    61.162212    -10.709017    -41.126762    18.942284    15.832072    -44.651054    19.140329    -3.126035    -2.536829    18.318079    -12.175331    44.623016    8.067419    1.709150    -4.164937    -2.455347    -27.567739    -47.316158    -20.527559    4.223471    -1.890332    -4.376065    23.136835    43.388348    -12.364296    -0.282997    2.827692    0.492677    
8.888767    9.564606    -50.599541    1.106382    -38.467358    -7.666294    -3.511979    20.862530    -0.612310    -4.776771    20.703018    -0.386015    2.499528    30.519978    2.738588    1.940395    -35.138420    4.049155    9.639305    -3.336118    -0.529219    -53.272141    25.160862    -58.860931    -23.556379    -40.455219    -70.843208    -26.419590    -44.793114    -45.162590    -1.501415    -4.076768    28.364321    56.776951    7.924636    53.927933    8.971797    -35.551327    61.160812    -10.557068    -41.104034    18.959991    15.783735    -44.639370    19.210171    -3.086086    -2.469910    18.242702    -12.206376    44.606186    8.063016    1.724714    -4.181575    -2.477971    -27.553072    -47.256241    -20.464216    4.205113    -1.875062    -4.383022    23.173779    43.357353    -12.432024    -0.401232    2.860138    0.698283    
8.896717    9.563502    -50.601410    1.076097    -38.521030    -7.677315    -3.509948    20.839270    -0.608245    -4.762312    20.732149    -0.382259    2.473832    30.565977    2.772970    2.055188    -34.954296    4.129643    9.673285    -3.302202    -0.529021    -53.273495    25.129641    -58.883282    -23.698580    -40.504688    -70.907341    -26.199572    -45.009205    -45.112278    -1.506272    -4.048171    28.350227    56.749031    7.876194    53.960423    8.890307    -35.516800    61.125793    -10.508149    -41.020596    18.877720    15.794983    -44.618519    19.238298    -3.085196    -2.404282    18.198317    -12.238503    44.581459    8.083048    1.728045    -4.183075    -2.482780    -27.517809    -47.205612    -20.380724    4.198380    -1.864168    -4.409899    23.188644    43.330444    -12.460655    -0.403366    2.858791    0.702007    
8.736112    9.465399    -50.756985    1.148432    -38.772141    -7.126886    -4.126790    21.619637    -0.605372    -4.013411    20.208296    -0.678158    2.613275    30.651131    2.764892    1.993855    -34.847752    4.114555    9.735508    -3.249164    -0.519276    -53.211056    25.130545    -58.967953    -23.862768    -40.601074    -71.006531    -26.008364    -45.274647    -45.083729    -1.451359    -4.016969    28.298326    56.675968    7.882950    53.995674    8.795750    -35.478210    61.082298    -10.467296    -40.929237    18.814564    15.466740    -44.734543    18.983086    -3.191699    -2.060967    17.982883    -12.216830    44.559132    7.958447    1.733179    -4.188582    -2.490243    -27.635883    -46.909023    -20.504768    3.945262    -1.797276    -4.432587    23.244886    43.281956    -12.573581    -0.395986    2.835804    0.689324    
